<svg xmlns="http://www.w3.org/2000/svg" xmlns:xlink="http://www.w3.org/1999/xlink" width="61" height="54" viewBox="0 0 61 54">
  <defs>
    <linearGradient id="linear-gradient" x1="0.5" x2="0.5" y2="1" gradientUnits="objectBoundingBox">
      <stop offset="0" stop-color="#fdfdfd"/>
      <stop offset="1" stop-color="#e6e6e6"/>
    </linearGradient>
    <filter id="White" x="0" y="0" width="61" height="54" filterUnits="userSpaceOnUse">
      <feOffset dy="1" input="SourceAlpha"/>
      <feGaussianBlur stdDeviation="0.5" result="blur"/>
      <feFlood flood-opacity="0.2"/>
      <feComposite operator="in" in2="blur"/>
      <feComposite in="SourceGraphic"/>
    </filter>
    <linearGradient id="linear-gradient-2" x1="0.5" x2="0.5" y2="1" gradientUnits="objectBoundingBox">
      <stop offset="0" stop-color="#fee543"/>
      <stop offset="1" stop-color="#e1aa00"/>
    </linearGradient>
    <linearGradient id="linear-gradient-3" x1="0.5" x2="0.5" y2="1" gradientUnits="objectBoundingBox">
      <stop offset="0" stop-color="#faf8ec"/>
      <stop offset="0.973" stop-color="#e6e7e7"/>
    </linearGradient>
    <filter id="_" x="26.259" y="12.83" width="8.483" height="33.024" filterUnits="userSpaceOnUse">
      <feOffset dy="0.5" input="SourceAlpha"/>
      <feGaussianBlur stdDeviation="0.25" result="blur-2"/>
      <feFlood flood-opacity="0.251"/>
      <feComposite operator="in" in2="blur-2"/>
      <feComposite in="SourceGraphic"/>
    </filter>
  </defs>
  <g id="Group" transform="translate(1.5 0.5)">
    <g transform="matrix(1, 0, 0, 1, -1.5, -0.5)" filter="url(#White)">
      <path id="White-2" data-name="White" d="M23.348,4.811a6.518,6.518,0,0,1,11.287,0L57.277,44.474a5.419,5.419,0,0,1-4.775,8.08H5.483a5.419,5.419,0,0,1-4.775-8.08Z" transform="translate(1.51 -1.05)" fill="url(#linear-gradient)"/>
    </g>
    <path id="Yellow" d="M23.417,1.477a4.011,4.011,0,0,1,6.92,0l22.956,39.6a3.448,3.448,0,0,1-3.028,5.162H3.489A3.448,3.448,0,0,1,.462,41.079Z" transform="translate(2.122 2.789)" fill="url(#linear-gradient-2)"/>
    <g transform="matrix(1, 0, 0, 1, -1.5, -0.5)" filter="url(#_)">
      <path id="_2" data-name="!" d="M.252,28.322a3.221,3.221,0,0,1,3.24-3.2,3.2,3.2,0,1,1,0,6.4A3.221,3.221,0,0,1,.252,28.322Zm3.24-6.157a1.134,1.134,0,0,1-1.129-.976L.031,3.906A3.464,3.464,0,0,1,3.492,0a3.465,3.465,0,0,1,3.46,3.906L4.6,21.311a.992.992,0,0,1-.988.855Z" transform="translate(27.01 13.08)" fill="url(#linear-gradient-3)"/>
    </g>
  </g>
</svg>
